<svg width="16" height="16" viewBox="0 0 16 16" fill="none" xmlns="http://www.w3.org/2000/svg">
<path d="M8.97501 1.17495C8.97501 0.636474 8.53849 0.199951 8.00001 0.199951C7.46153 0.199951 7.02501 0.636474 7.02501 1.17495V7.02495H1.17501C0.636535 7.02495 0.200012 7.46147 0.200012 7.99995C0.200012 8.53843 0.636535 8.97495 1.17501 8.97495L7.02501 8.97495V14.825C7.02501 15.3634 7.46153 15.8 8.00001 15.8C8.53849 15.8 8.97501 15.3634 8.97501 14.825V8.97495H14.825C15.3635 8.97495 15.8 8.53843 15.8 7.99995C15.8 7.46147 15.3635 7.02495 14.825 7.02495H8.97501V1.17495Z" fill="white"/>
</svg>
