<svg width="14" height="14" viewBox="0 0 14 14" fill="none" xmlns="http://www.w3.org/2000/svg">
<path d="M2.16443 0.785571C1.78367 0.40481 1.16633 0.40481 0.785571 0.785571C0.40481 1.16633 0.40481 1.78367 0.785571 2.16443L5.62114 7L0.785571 11.8356C0.40481 12.2163 0.40481 12.8337 0.785571 13.2144C1.16633 13.5952 1.78367 13.5952 2.16443 13.2144L7 8.37886L11.8356 13.2144C12.2163 13.5952 12.8337 13.5952 13.2144 13.2144C13.5952 12.8337 13.5952 12.2163 13.2144 11.8356L8.37886 7L13.2144 2.16443C13.5952 1.78367 13.5952 1.16633 13.2144 0.785571C12.8337 0.40481 12.2163 0.40481 11.8356 0.785571L7 5.62114L2.16443 0.785571Z" fill="#C5FF66"/>
</svg>
