<svg width="31" height="30" viewBox="0 0 31 30" fill="none" xmlns="http://www.w3.org/2000/svg">
<path d="M11.7971 17.0473C11.7971 16.9415 11.8512 16.8463 11.9377 16.7405L16.404 11.2492C16.7392 10.826 17.3016 11.1116 17.1069 11.6301L15.6362 15.492H18.3938C18.5993 15.492 18.7831 15.6507 18.7831 15.8412C18.7831 15.947 18.7291 16.0634 18.6317 16.1585L14.1763 21.6392C13.841 22.0625 13.2678 21.7768 13.4625 21.269L14.944 17.3965H12.1756C11.9702 17.3965 11.7971 17.2484 11.7971 17.0473ZM5.97905 24.7288H24.6877C26.9587 24.7288 28.0834 23.639 28.0834 21.4594V11.228C28.0834 9.04842 26.9587 7.95862 24.6877 7.95862H23.1953V6.54083C23.1953 5.73671 22.7195 5.25 21.8868 5.25H18.6966C17.8747 5.25 17.3989 5.73671 17.3989 6.54083V7.95862H13.2786V6.54083C13.2786 5.73671 12.8028 5.25 11.9702 5.25H8.77994C7.94724 5.25 7.48223 5.73671 7.48223 6.54083V7.95862H5.97905C3.71887 7.95862 2.58337 9.04842 2.58337 11.228V21.4594C2.58337 23.639 3.71887 24.7288 5.97905 24.7288Z" fill="#9EFF00"/>
</svg>
