<svg width="30" height="30" viewBox="0 0 30 30" fill="none" xmlns="http://www.w3.org/2000/svg">
<path fill-rule="evenodd" clip-rule="evenodd" d="M25.7482 1.875C25.279 1.875 24.8203 2.01389 24.4298 2.27417L18.0811 6.50666C16.4086 7.62163 14.8926 8.94302 13.5664 10.4347C16.21 11.6552 18.3448 13.79 19.5653 16.4336C21.0569 15.1073 22.3783 13.5913 23.4933 11.9188L27.7258 5.57011C27.9861 5.17969 28.1249 4.72096 28.1249 4.25173C28.1249 2.9391 27.0608 1.875 25.7482 1.875ZM15.3744 19.4061C16.2717 18.9076 17.1327 18.3521 17.9526 17.7441C16.9124 15.1544 14.8456 13.0876 12.2558 12.0473C11.6478 12.8672 11.0923 13.7282 10.5938 14.6256L10.2457 15.2523C12.4163 15.8731 14.1268 17.5837 14.7477 19.7543L15.3744 19.4061ZM8.43744 16.875C5.84858 16.875 3.74994 18.9736 3.74994 21.5625C3.74994 22.598 2.91048 23.4375 1.87494 23.4375C1.83249 23.4375 1.79023 23.4361 1.74825 23.4333C1.40306 23.4105 1.07335 23.5796 0.890522 23.8733C0.707693 24.167 0.701457 24.5375 0.874301 24.8372C2.00655 26.8002 4.12921 28.125 6.56244 28.125C10.1868 28.125 13.1249 25.1869 13.1249 21.5625C13.1249 18.9736 11.0263 16.875 8.43744 16.875Z" fill="#9EFF00"/>
</svg>
