<svg width="30" height="30" viewBox="0 0 30 30" fill="none" xmlns="http://www.w3.org/2000/svg">
<path d="M14.728 27.4951C14.9281 27.4951 15.2407 27.42 15.5533 27.2575C22.6678 23.5314 24.9561 21.6683 24.9561 17.1795V7.75171C24.9561 6.46383 24.4058 6.0512 23.3556 5.61357C21.8927 5.01339 17.2163 3.3129 15.7658 2.81275C15.4282 2.70021 15.0781 2.6377 14.728 2.6377C14.3779 2.6377 14.0278 2.71272 13.7027 2.81275C12.2398 3.28789 7.5634 5.0259 6.10047 5.61357C5.06267 6.0387 4.5 6.46383 4.5 7.75171V17.1795C4.5 21.6683 6.91321 23.3188 13.9028 27.2575C14.2279 27.4326 14.528 27.4951 14.728 27.4951ZM9.08885 15.4789C9.08885 15.3289 9.16387 15.1414 9.30142 14.9789L16.366 6.11372C16.9037 5.43852 17.804 5.88866 17.4789 6.7264L15.1532 12.9783H19.5169C19.8545 12.9783 20.1046 13.2158 20.1046 13.5535C20.1046 13.7035 20.0296 13.8911 19.8921 14.0536L12.8275 22.9187C12.2898 23.5939 11.402 23.1437 11.7146 22.3185L14.0528 16.0542H9.67653C9.35144 16.0542 9.08885 15.8165 9.08885 15.4789Z" fill="#9EFF00"/>
</svg>
