<svg width="24" height="28" viewBox="0 0 24 28" fill="none" xmlns="http://www.w3.org/2000/svg">
<path d="M12.2724 27.8254C16.5359 27.8254 19.9758 24.3855 19.9758 20.1341C19.9758 15.8705 16.5359 12.4307 12.2724 12.4307C8.02096 12.4307 4.58106 15.8705 4.58106 20.1341C4.58106 24.3855 8.02096 27.8254 12.2724 27.8254ZM10.08 24.0948C9.61978 24.4339 9.13529 24.0827 9.31697 23.5498L10.1891 20.9456L7.96039 19.3589C7.53647 19.044 7.6697 18.4505 8.25109 18.4505L10.9885 18.4747L11.8242 15.8585C11.9938 15.3255 12.5751 15.3255 12.7448 15.8585L13.5805 18.4747L16.3179 18.4505C16.8993 18.4505 17.0204 19.0561 16.6086 19.3468L14.3799 20.9456L15.252 23.5498C15.4337 24.0827 14.9492 24.4339 14.4889 24.0948L12.2845 22.4838L10.08 24.0948ZM4.89598 14.3686C6.08299 12.8666 7.71815 11.7281 9.59556 11.1709L4.10868 1.31153L0.923135 6.16857C0.705113 6.48349 0.693001 6.83475 0.886798 7.14966L4.89598 14.3686ZM9.55923 7.04065H14.9977L18.6919 0.5H5.86496L9.55923 7.04065ZM14.9613 11.1709C16.8509 11.7281 18.4739 12.8666 19.6609 14.3686L23.6822 7.14966C23.8639 6.83475 23.8518 6.48349 23.6338 6.16857L20.4482 1.31153L14.9613 11.1709Z" fill="#9EFF00"/>
</svg>
