<svg width="666" height="59" viewBox="0 0 666 59" fill="none" xmlns="http://www.w3.org/2000/svg">
<rect x="3" y="26" width="660" height="2" fill="#333333"/>
<rect x="60" y="17" width="20" height="20" rx="10" fill="#4C4C4D"/>
<circle cx="70" cy="27" r="6" fill="#9EFF00"/>
<path d="M52.2523 58.7727V46.0455H53.0676V58.7727H52.2523ZM54.8027 49.9929C54.7497 49.5223 54.531 49.1577 54.1465 48.8991C53.762 48.6373 53.2781 48.5064 52.6948 48.5064C52.2772 48.5064 51.9159 48.5727 51.611 48.7053C51.306 48.8345 51.0691 49.0135 50.9 49.2422C50.7343 49.4676 50.6515 49.7244 50.6515 50.0128C50.6515 50.2547 50.7078 50.4635 50.8205 50.6392C50.9365 50.8149 51.0873 50.9624 51.2729 51.0817C51.4618 51.1977 51.664 51.2955 51.8794 51.375C52.0949 51.4512 52.302 51.5142 52.5009 51.5639L53.4952 51.8224C53.82 51.902 54.1531 52.0097 54.4945 52.1456C54.8359 52.2815 55.1524 52.4605 55.4441 52.6825C55.7357 52.9046 55.9711 53.1797 56.15 53.5078C56.3323 53.8359 56.4235 54.2287 56.4235 54.6861C56.4235 55.2628 56.2743 55.7749 55.976 56.2223C55.681 56.6697 55.2518 57.0227 54.6884 57.2812C54.1283 57.5398 53.4505 57.669 52.655 57.669C51.8927 57.669 51.2331 57.5481 50.6763 57.3061C50.1195 57.0642 49.6837 56.7211 49.3688 56.277C49.0539 55.8295 48.8799 55.2992 48.8468 54.6861H50.388C50.4178 55.054 50.5371 55.3606 50.7459 55.6058C50.958 55.8478 51.2282 56.0284 51.5563 56.1477C51.8877 56.2637 52.2507 56.3217 52.6451 56.3217C53.0792 56.3217 53.4654 56.2538 53.8034 56.1179C54.1448 55.9787 54.4133 55.7865 54.6088 55.5412C54.8044 55.2926 54.9022 55.0026 54.9022 54.6712C54.9022 54.3696 54.816 54.1226 54.6436 53.9304C54.4746 53.7382 54.2443 53.5791 53.9526 53.4531C53.6642 53.3272 53.3378 53.2161 52.9732 53.12L51.7701 52.7919C50.9547 52.5698 50.3084 52.2434 49.8311 51.8125C49.3572 51.3816 49.1202 50.8116 49.1202 50.1023C49.1202 49.5156 49.2793 49.0036 49.5975 48.5661C49.9157 48.1286 50.3465 47.7888 50.8901 47.5469C51.4337 47.3016 52.0468 47.179 52.7296 47.179C53.419 47.179 54.0272 47.3 54.5542 47.5419C55.0845 47.7839 55.5021 48.117 55.807 48.5412C56.1119 48.9621 56.271 49.446 56.2843 49.9929H54.8027ZM61.983 47.3182V57.5H60.4418V48.8594H60.3821L57.946 50.4503V48.9787L60.4865 47.3182H61.983ZM68.282 57.669C67.4964 57.6657 66.8253 57.4586 66.2685 57.0476C65.7116 56.6366 65.2857 56.0384 64.9908 55.2528C64.6958 54.4673 64.5483 53.5211 64.5483 52.4141C64.5483 51.3104 64.6958 50.3674 64.9908 49.5852C65.2891 48.803 65.7166 48.2064 66.2734 47.7955C66.8336 47.3845 67.5031 47.179 68.282 47.179C69.0608 47.179 69.7287 47.3861 70.2855 47.8004C70.8423 48.2114 71.2682 48.808 71.5632 49.5902C71.8615 50.3691 72.0107 51.3104 72.0107 52.4141C72.0107 53.5244 71.8632 54.4723 71.5682 55.2578C71.2732 56.04 70.8473 56.6383 70.2905 57.0526C69.7337 57.4635 69.0642 57.669 68.282 57.669ZM68.282 56.3416C68.9714 56.3416 69.5099 56.0052 69.8977 55.3324C70.2888 54.6596 70.4844 53.6868 70.4844 52.4141C70.4844 51.5689 70.3949 50.8546 70.2159 50.2713C70.0402 49.6847 69.7867 49.2405 69.4553 48.9389C69.1271 48.634 68.736 48.4815 68.282 48.4815C67.5959 48.4815 67.0573 48.8196 66.6662 49.4957C66.2751 50.1719 66.0779 51.1446 66.0746 52.4141C66.0746 53.2625 66.1624 53.9801 66.3381 54.5668C66.517 55.1501 66.7706 55.5926 67.0987 55.8942C67.4268 56.1925 67.8213 56.3416 68.282 56.3416ZM77.3191 57.669C76.5336 57.6657 75.8624 57.4586 75.3056 57.0476C74.7488 56.6366 74.3229 56.0384 74.0279 55.2528C73.7329 54.4673 73.5854 53.5211 73.5854 52.4141C73.5854 51.3104 73.7329 50.3674 74.0279 49.5852C74.3262 48.803 74.7537 48.2064 75.3105 47.7955C75.8707 47.3845 76.5402 47.179 77.3191 47.179C78.098 47.179 78.7658 47.3861 79.3226 47.8004C79.8794 48.2114 80.3053 48.808 80.6003 49.5902C80.8986 50.3691 81.0478 51.3104 81.0478 52.4141C81.0478 53.5244 80.9003 54.4723 80.6053 55.2578C80.3103 56.04 79.8844 56.6383 79.3276 57.0526C78.7708 57.4635 78.1013 57.669 77.3191 57.669ZM77.3191 56.3416C78.0085 56.3416 78.5471 56.0052 78.9348 55.3324C79.3259 54.6596 79.5215 53.6868 79.5215 52.4141C79.5215 51.5689 79.432 50.8546 79.253 50.2713C79.0774 49.6847 78.8238 49.2405 78.4924 48.9389C78.1642 48.634 77.7731 48.4815 77.3191 48.4815C76.633 48.4815 76.0944 48.8196 75.7033 49.4957C75.3122 50.1719 75.115 51.1446 75.1117 52.4141C75.1117 53.2625 75.1995 53.9801 75.3752 54.5668C75.5542 55.1501 75.8077 55.5926 76.1358 55.8942C76.464 56.1925 76.8584 56.3416 77.3191 56.3416ZM86.3562 57.669C85.5707 57.6657 84.8995 57.4586 84.3427 57.0476C83.7859 56.6366 83.36 56.0384 83.065 55.2528C82.77 54.4673 82.6225 53.5211 82.6225 52.4141C82.6225 51.3104 82.77 50.3674 83.065 49.5852C83.3633 48.803 83.7908 48.2064 84.3477 47.7955C84.9078 47.3845 85.5773 47.179 86.3562 47.179C87.1351 47.179 87.8029 47.3861 88.3597 47.8004C88.9165 48.2114 89.3424 48.808 89.6374 49.5902C89.9357 50.3691 90.0849 51.3104 90.0849 52.4141C90.0849 53.5244 89.9374 54.4723 89.6424 55.2578C89.3474 56.04 88.9215 56.6383 88.3647 57.0526C87.8079 57.4635 87.1384 57.669 86.3562 57.669ZM86.3562 56.3416C87.0456 56.3416 87.5842 56.0052 87.9719 55.3324C88.363 54.6596 88.5586 53.6868 88.5586 52.4141C88.5586 51.5689 88.4691 50.8546 88.2901 50.2713C88.1145 49.6847 87.8609 49.2405 87.5295 48.9389C87.2013 48.634 86.8103 48.4815 86.3562 48.4815C85.6701 48.4815 85.1315 48.8196 84.7404 49.4957C84.3493 50.1719 84.1521 51.1446 84.1488 52.4141C84.1488 53.2625 84.2366 53.9801 84.4123 54.5668C84.5913 55.1501 84.8448 55.5926 85.1729 55.8942C85.5011 56.1925 85.8955 56.3416 86.3562 56.3416Z" fill="white"/>
<rect x="80" y="25.5" width="286" height="3" fill="#9EFF00"/>
<rect x="366" y="17" width="20" height="20" rx="10" fill="#4C4C4D"/>
<circle cx="376" cy="27" r="6" fill="#9EFF00"/>
<path d="M357.22 58.7727V46.0455H358.035V58.7727H357.22ZM359.771 49.9929C359.717 49.5223 359.499 49.1577 359.114 48.8991C358.73 48.6373 358.246 48.5064 357.663 48.5064C357.245 48.5064 356.884 48.5727 356.579 48.7053C356.274 48.8345 356.037 49.0135 355.868 49.2422C355.702 49.4676 355.619 49.7244 355.619 50.0128C355.619 50.2547 355.676 50.4635 355.788 50.6392C355.904 50.8149 356.055 50.9624 356.241 51.0817C356.43 51.1977 356.632 51.2955 356.847 51.375C357.063 51.4512 357.27 51.5142 357.469 51.5639L358.463 51.8224C358.788 51.902 359.121 52.0097 359.462 52.1456C359.804 52.2815 360.12 52.4605 360.412 52.6825C360.704 52.9046 360.939 53.1797 361.118 53.5078C361.3 53.8359 361.391 54.2287 361.391 54.6861C361.391 55.2628 361.242 55.7749 360.944 56.2223C360.649 56.6697 360.22 57.0227 359.656 57.2812C359.096 57.5398 358.418 57.669 357.623 57.669C356.86 57.669 356.201 57.5481 355.644 57.3061C355.087 57.0642 354.651 56.7211 354.337 56.277C354.022 55.8295 353.848 55.2992 353.815 54.6861H355.356C355.386 55.054 355.505 55.3606 355.714 55.6058C355.926 55.8478 356.196 56.0284 356.524 56.1477C356.855 56.2637 357.218 56.3217 357.613 56.3217C358.047 56.3217 358.433 56.2538 358.771 56.1179C359.113 55.9787 359.381 55.7865 359.577 55.5412C359.772 55.2926 359.87 55.0026 359.87 54.6712C359.87 54.3696 359.784 54.1226 359.611 53.9304C359.442 53.7382 359.212 53.5791 358.92 53.4531C358.632 53.3272 358.306 53.2161 357.941 53.12L356.738 52.7919C355.922 52.5698 355.276 52.2434 354.799 51.8125C354.325 51.3816 354.088 50.8116 354.088 50.1023C354.088 49.5156 354.247 49.0036 354.565 48.5661C354.883 48.1286 355.314 47.7888 355.858 47.5469C356.401 47.3016 357.015 47.179 357.697 47.179C358.387 47.179 358.995 47.3 359.522 47.5419C360.052 47.7839 360.47 48.117 360.775 48.5412C361.08 48.9621 361.239 49.446 361.252 49.9929H359.771ZM366.449 57.6392C365.825 57.6392 365.265 57.5199 364.768 57.2812C364.274 57.0393 363.88 56.7079 363.585 56.2869C363.29 55.866 363.133 55.3854 363.113 54.8452H364.604C364.641 55.2827 364.834 55.6423 365.186 55.924C365.537 56.2057 365.958 56.3466 366.449 56.3466C366.84 56.3466 367.186 56.2571 367.488 56.0781C367.793 55.8958 368.031 55.6456 368.204 55.3274C368.379 55.0092 368.467 54.6463 368.467 54.2386C368.467 53.8243 368.378 53.4548 368.199 53.13C368.02 52.8052 367.773 52.55 367.458 52.3643C367.146 52.1787 366.788 52.0843 366.384 52.081C366.076 52.081 365.766 52.134 365.454 52.2401C365.143 52.3461 364.891 52.4853 364.699 52.6577L363.292 52.4489L363.863 47.3182H369.461V48.6357H365.141L364.818 51.4844H364.878C365.076 51.2921 365.34 51.1314 365.668 51.0021C365.999 50.8729 366.354 50.8082 366.732 50.8082C367.352 50.8082 367.904 50.9557 368.388 51.2507C368.875 51.5457 369.258 51.9484 369.536 52.4588C369.818 52.9659 369.957 53.5492 369.954 54.2088C369.957 54.8684 369.808 55.4567 369.506 55.9737C369.208 56.4908 368.794 56.8984 368.263 57.1967C367.736 57.4917 367.131 57.6392 366.449 57.6392ZM375.314 57.669C374.529 57.6657 373.858 57.4586 373.301 57.0476C372.744 56.6366 372.318 56.0384 372.023 55.2528C371.728 54.4673 371.581 53.5211 371.581 52.4141C371.581 51.3104 371.728 50.3674 372.023 49.5852C372.321 48.803 372.749 48.2064 373.306 47.7955C373.866 47.3845 374.535 47.179 375.314 47.179C376.093 47.179 376.761 47.3861 377.318 47.8004C377.875 48.2114 378.3 48.808 378.595 49.5902C378.894 50.3691 379.043 51.3104 379.043 52.4141C379.043 53.5244 378.895 54.4723 378.6 55.2578C378.305 56.04 377.88 56.6383 377.323 57.0526C376.766 57.4635 376.096 57.669 375.314 57.669ZM375.314 56.3416C376.004 56.3416 376.542 56.0052 376.93 55.3324C377.321 54.6596 377.517 53.6868 377.517 52.4141C377.517 51.5689 377.427 50.8546 377.248 50.2713C377.072 49.6847 376.819 49.2405 376.487 48.9389C376.159 48.634 375.768 48.4815 375.314 48.4815C374.628 48.4815 374.09 48.8196 373.698 49.4957C373.307 50.1719 373.11 51.1446 373.107 52.4141C373.107 53.2625 373.195 53.9801 373.37 54.5668C373.549 55.1501 373.803 55.5926 374.131 55.8942C374.459 56.1925 374.853 56.3416 375.314 56.3416ZM384.351 57.669C383.566 57.6657 382.895 57.4586 382.338 57.0476C381.781 56.6366 381.355 56.0384 381.06 55.2528C380.765 54.4673 380.618 53.5211 380.618 52.4141C380.618 51.3104 380.765 50.3674 381.06 49.5852C381.358 48.803 381.786 48.2064 382.343 47.7955C382.903 47.3845 383.572 47.179 384.351 47.179C385.13 47.179 385.798 47.3861 386.355 47.8004C386.912 48.2114 387.338 48.808 387.633 49.5902C387.931 50.3691 388.08 51.3104 388.08 52.4141C388.08 53.5244 387.932 54.4723 387.638 55.2578C387.343 56.04 386.917 56.6383 386.36 57.0526C385.803 57.4635 385.133 57.669 384.351 57.669ZM384.351 56.3416C385.041 56.3416 385.579 56.0052 385.967 55.3324C386.358 54.6596 386.554 53.6868 386.554 52.4141C386.554 51.5689 386.464 50.8546 386.285 50.2713C386.11 49.6847 385.856 49.2405 385.525 48.9389C385.196 48.634 384.805 48.4815 384.351 48.4815C383.665 48.4815 383.127 48.8196 382.736 49.4957C382.344 50.1719 382.147 51.1446 382.144 52.4141C382.144 53.2625 382.232 53.9801 382.407 54.5668C382.586 55.1501 382.84 55.5926 383.168 55.8942C383.496 56.1925 383.891 56.3416 384.351 56.3416ZM393.388 57.669C392.603 57.6657 391.932 57.4586 391.375 57.0476C390.818 56.6366 390.392 56.0384 390.097 55.2528C389.802 54.4673 389.655 53.5211 389.655 52.4141C389.655 51.3104 389.802 50.3674 390.097 49.5852C390.396 48.803 390.823 48.2064 391.38 47.7955C391.94 47.3845 392.61 47.179 393.388 47.179C394.167 47.179 394.835 47.3861 395.392 47.8004C395.949 48.2114 396.375 48.808 396.67 49.5902C396.968 50.3691 397.117 51.3104 397.117 52.4141C397.117 53.5244 396.97 54.4723 396.675 55.2578C396.38 56.04 395.954 56.6383 395.397 57.0526C394.84 57.4635 394.171 57.669 393.388 57.669ZM393.388 56.3416C394.078 56.3416 394.616 56.0052 395.004 55.3324C395.395 54.6596 395.591 53.6868 395.591 52.4141C395.591 51.5689 395.501 50.8546 395.322 50.2713C395.147 49.6847 394.893 49.2405 394.562 48.9389C394.234 48.634 393.842 48.4815 393.388 48.4815C392.702 48.4815 392.164 48.8196 391.773 49.4957C391.382 50.1719 391.184 51.1446 391.181 52.4141C391.181 53.2625 391.269 53.9801 391.445 54.5668C391.623 55.1501 391.877 55.5926 392.205 55.8942C392.533 56.1925 392.928 56.3416 393.388 56.3416Z" fill="white"/>
</svg>
