<svg width="26" height="27" viewBox="0 0 26 27" fill="none" xmlns="http://www.w3.org/2000/svg">
<path d="M12.7292 5.67117C12.7292 5.22723 12.4966 4.82595 12.2277 4.47275C11.9516 4.11013 11.7917 3.68 11.7917 3.21875C11.7917 1.92433 13.0509 0.875 14.6042 0.875C16.1575 0.875 17.4167 1.92433 17.4167 3.21875C17.4167 3.68 17.2568 4.11013 16.9807 4.47275C16.7117 4.82595 16.4792 5.22723 16.4792 5.67117C16.4792 6.08661 16.8263 6.41825 17.241 6.3935C19.6293 6.25099 21.979 5.9666 24.2819 5.54873C24.5353 5.50274 24.7965 5.56306 25.0042 5.71551C25.2118 5.86796 25.3475 6.09913 25.3795 6.35471C25.6595 8.59155 25.8183 10.8658 25.849 13.1706C25.8551 13.6285 25.4833 13.9999 25.0254 14C24.5814 14 24.1801 13.7674 23.8269 13.4985C23.4643 13.2224 23.0342 13.0625 22.5729 13.0625C21.2785 13.0625 20.2292 14.3217 20.2292 15.875C20.2292 17.4283 21.2785 18.6875 22.5729 18.6875C23.0342 18.6875 23.4643 18.5276 23.8269 18.2515C24.1801 17.9826 24.5814 17.75 25.0254 17.75C25.4134 17.75 25.7215 18.0771 25.6935 18.4641C25.5451 20.5123 25.2955 22.5327 24.9496 24.5202C24.8818 24.9099 24.5765 25.2152 24.1867 25.283C21.9128 25.6787 19.5959 25.9484 17.2435 26.0846C16.8273 26.1087 16.4792 25.7756 16.4792 25.3587C16.4792 24.9147 16.7117 24.5135 16.9807 24.1602C17.2568 23.7976 17.4167 23.3675 17.4167 22.9062C17.4167 21.6118 16.1575 20.5625 14.6042 20.5625C13.0509 20.5625 11.7917 21.6118 11.7917 22.9062C11.7917 23.3675 11.9516 23.7976 12.2277 24.1602C12.4966 24.5135 12.7292 24.9147 12.7292 25.3587C12.7292 25.8106 12.3591 26.1757 11.9073 26.1628C9.92047 26.1065 7.95716 25.955 6.02185 25.7127C5.76626 25.6807 5.5351 25.5449 5.38265 25.3373C5.2302 25.1297 5.16988 24.8685 5.21587 24.6151C5.58197 22.5976 5.84562 20.5442 6.00118 18.4604C6.02991 18.0756 5.72372 17.75 5.33786 17.75C4.89391 17.75 4.49264 17.9826 4.13943 18.2515C3.77681 18.5276 3.34668 18.6875 2.88544 18.6875C1.59102 18.6875 0.541687 17.4283 0.541687 15.875C0.541687 14.3217 1.59102 13.0625 2.88544 13.0625C3.34668 13.0625 3.77681 13.2224 4.13943 13.4985C4.49264 13.7674 4.89392 14 5.33786 14C5.79581 14 6.16766 13.6287 6.16136 13.1708C6.13336 11.1356 6.00246 9.12533 5.77367 7.14535C5.74082 6.86101 5.83966 6.57723 6.04206 6.37483C6.24446 6.17243 6.52824 6.07358 6.81259 6.10644C8.49046 6.30032 10.1899 6.4239 11.908 6.47414C12.3594 6.48734 12.7292 6.12271 12.7292 5.67117Z" fill="#9EFF00"/>
</svg>
