<svg width="119" height="41" viewBox="0 0 119 41" fill="none" xmlns="http://www.w3.org/2000/svg">
<rect y="0.5" width="40.1878" height="40" rx="5" fill="#9EFF00"/>
<path d="M7.32394 12.9746L20.0939 20.4998V34.866L7.32394 27.5688L7.32394 12.9746Z" fill="#1A1A1A"/>
<path fill-rule="evenodd" clip-rule="evenodd" d="M21.2207 20.4899V32.9246L31.7371 26.9152V14.2927L21.2207 20.4899ZM32.8638 27.5691L20.0939 34.8662V20.5L7.32393 12.9748L20.0939 6.13379L32.8638 12.9748V27.5691ZM31.1464 13.333L20.0939 7.41205L9.62269 13.0216L20.6487 19.5191L31.1464 13.333Z" fill="#1A1A1A"/>
<path d="M51.0713 13.8335C53.0918 13.8335 54.6221 14.9329 55.0084 16.7009L52.9878 17.1169C52.8393 16.1809 52.0221 15.5718 51.0267 15.5718C50.0164 15.5718 49.4073 16.1364 49.4073 16.8049C49.4073 17.3101 49.6301 17.6666 50.4027 17.8152L52.5421 18.2461C54.1615 18.5878 55.157 19.5535 55.157 21.0986C55.157 23.0301 53.5673 24.2335 51.205 24.2335C49.125 24.2335 47.2975 23.2678 47.045 21.2769L49.1695 20.8461C49.437 21.9752 50.269 22.4655 51.3981 22.4655C52.557 22.4655 53.1661 21.9158 53.1661 21.2026C53.1661 20.6381 52.8987 20.2964 52.0073 20.1181L49.8975 19.7169C48.709 19.4644 47.2827 18.8106 47.2827 16.8644C47.2827 15.0815 48.7387 13.8335 51.0713 13.8335Z" fill="white"/>
<path d="M64.3925 16.5969V26.5364H62.4314V23.4312C61.8074 23.9364 60.9903 24.2335 59.98 24.2335C58.0931 24.2335 56.34 22.6438 56.34 20.3112C56.34 17.9786 58.0931 16.3741 59.98 16.3741C60.9903 16.3741 61.8074 16.6712 62.4314 17.1912V16.5969H64.3925ZM60.3217 22.5249C61.3765 22.5249 62.4314 21.6781 62.4314 20.3112C62.4314 18.9444 61.3765 18.0826 60.3217 18.0826C59.1331 18.0826 58.2417 18.9444 58.2417 20.3112C58.2417 21.6781 59.1331 22.5249 60.3217 22.5249Z" fill="white"/>
<path d="M73.4661 16.5969V24.0106H71.5049V23.3421C70.9255 23.9215 70.1529 24.2335 69.1724 24.2335C67.3895 24.2335 66.2009 22.9558 66.2009 21.1135V16.5969H68.1621V20.6975C68.1621 21.7375 68.7564 22.4358 69.6626 22.4358C70.7769 22.4358 71.5049 21.6929 71.5049 19.8804V16.5969H73.4661Z" fill="white"/>
<path d="M83.0075 16.5969V24.0106H81.0464V23.4312C80.4224 23.9364 79.6052 24.2335 78.5949 24.2335C76.7081 24.2335 74.9549 22.6438 74.9549 20.3112C74.9549 17.9786 76.7081 16.3741 78.5949 16.3741C79.6052 16.3741 80.4224 16.6712 81.0464 17.1912V16.5969H83.0075ZM78.9366 22.5249C79.9915 22.5249 81.0464 21.6781 81.0464 20.3112C81.0464 18.9444 79.9915 18.0826 78.9366 18.0826C77.7481 18.0826 76.8566 18.9444 76.8566 20.3112C76.8566 21.6781 77.7481 22.5249 78.9366 22.5249Z" fill="white"/>
<path d="M89.7021 16.4929C89.8953 16.4929 90.0439 16.4929 90.2221 16.5524L90.1182 18.4392H89.6873C87.8747 18.4392 87.0427 19.5535 87.0427 21.6186V24.0106H85.0816V16.5969H87.0427V17.9489C87.637 17.0872 88.4987 16.4929 89.7021 16.4929Z" fill="white"/>
<path d="M98.3762 20.1626V20.8312H92.7304C92.9236 21.9009 93.6813 22.5546 94.5876 22.5546C95.167 22.5546 95.895 22.4804 96.4299 21.5741L98.183 21.9455C97.5293 23.4906 96.207 24.2335 94.5876 24.2335C92.4927 24.2335 90.7842 22.6438 90.7842 20.3112C90.7842 17.9786 92.4927 16.3741 94.6173 16.3741C96.5933 16.3741 98.3019 17.9044 98.3762 20.1626ZM94.6173 18.0826C93.8745 18.0826 93.0276 18.5284 92.7899 19.4495H96.3705C96.1179 18.4986 95.4047 18.0826 94.6173 18.0826Z" fill="white"/>
<path d="M108.439 14.0564V19.5535C108.439 22.3466 106.73 24.2335 104.16 24.2335C101.53 24.2335 99.777 22.3466 99.777 19.5535V14.0564H101.798V19.5535C101.798 21.2175 102.734 22.3021 104.16 22.3021C105.512 22.3021 106.418 21.2175 106.418 19.5535V14.0564H108.439Z" fill="white"/>
<path d="M114.841 16.3741C116.728 16.3741 118.481 17.9786 118.481 20.3112C118.481 22.6438 116.728 24.2335 114.841 24.2335C113.831 24.2335 113.014 23.9364 112.39 23.4312V26.5364H110.429V16.5969H112.39V17.1912C113.014 16.6712 113.831 16.3741 114.841 16.3741ZM114.5 22.5249C115.688 22.5249 116.58 21.6781 116.58 20.3112C116.58 18.9444 115.688 18.0826 114.5 18.0826C113.445 18.0826 112.39 18.9444 112.39 20.3112C112.39 21.6781 113.445 22.5249 114.5 22.5249Z" fill="white"/>
</svg>
