<svg width="197" height="72" viewBox="0 0 197 72" fill="none" xmlns="http://www.w3.org/2000/svg">
<g clip-path="url(#clip0_6002_5125)">
<path d="M79.5204 43.0247L80.7438 40.1651C82.0834 41.1571 83.8306 41.6822 85.5782 41.6822C86.8597 41.6822 87.6751 41.1864 87.6751 40.4278C87.6458 38.3268 79.9573 39.9609 79.8988 34.6787C79.8696 31.9941 82.258 29.9224 85.6367 29.9224C87.6458 29.9224 89.6558 30.4186 91.0826 31.5568L89.9394 34.4773C88.6266 33.6332 87.0051 33.0446 85.4617 33.0446C84.4133 33.0446 83.714 33.5404 83.714 34.1829C83.7433 36.2546 91.4907 35.1164 91.578 40.1651C91.578 42.9081 89.2477 44.8341 85.9274 44.8341C83.4814 44.8341 81.2388 44.2506 79.52 43.0247H79.5204ZM128.235 39.1296C127.927 39.6783 127.477 40.135 126.934 40.4529C126.39 40.7707 125.772 40.9382 125.142 40.9383C123.18 40.9383 121.589 39.3443 121.589 37.3782C121.589 35.4121 123.18 33.8182 125.142 33.8182C125.772 33.8183 126.39 33.9858 126.934 34.3036C127.477 34.6214 127.927 35.0781 128.235 35.6268L131.637 33.7389C130.363 31.462 127.933 29.9224 125.142 29.9224C121.033 29.9224 117.701 33.2602 117.701 37.3782C117.701 41.4959 121.033 44.8341 125.142 44.8341C127.933 44.8341 130.363 43.2945 131.637 41.0176L128.235 39.1296ZM93.7851 44.5421H98.0373V23.7158H93.7855L93.7851 44.5421ZM133.784 23.7158V44.5421H138.036V38.3026L143.075 44.5421H148.51L142.103 37.1297L148.044 30.2131H142.842L138.036 35.9635V23.7158H133.784ZM111.137 30.2139V31.9068C110.439 30.7394 108.72 29.9224 106.915 29.9224C103.187 29.9224 100.245 33.2201 100.245 37.3636C100.245 41.5072 103.187 44.8341 106.915 44.8341C108.72 44.8341 110.439 44.0171 111.137 42.8496V44.5421H115.39V30.2139H111.137ZM111.137 39.1585C110.526 40.1797 109.244 40.9378 107.818 40.9378C105.855 40.9378 104.264 39.3443 104.264 37.3782C104.264 35.4121 105.855 33.8182 107.818 33.8182C109.244 33.8182 110.526 34.606 111.137 35.6561V39.1585Z" fill="#E6E6E6"/>
<path d="M57.0652 23.2529C55.6872 23.2529 54.5703 24.3724 54.5703 25.7528C54.57 26.0808 54.6342 26.4056 54.7594 26.7087C54.8846 27.0119 55.0683 27.2874 55.3 27.5195C55.5317 27.7516 55.8068 27.9359 56.1097 28.0617C56.4125 28.1875 56.7372 28.2524 57.0652 28.2528H59.5605V25.7528C59.5611 25.0904 59.2985 24.455 58.8305 23.9861C58.3626 23.5173 57.7276 23.2536 57.0652 23.2529ZM57.0652 29.9194H50.4117C49.0337 29.9194 47.9168 31.0388 47.9168 32.4197C47.9168 33.8002 49.0337 34.9196 50.4117 34.9196H57.0656C58.4432 34.9196 59.5605 33.8002 59.5605 32.4197C59.5605 31.0388 58.4432 29.9194 57.0652 29.9194Z" fill="#E6E6E6"/>
<path d="M72.8668 32.4197C72.8668 31.0388 71.7494 29.9194 70.3715 29.9194C68.9935 29.9194 67.8766 31.0388 67.8766 32.4197V34.9196H70.3715C71.0339 34.9189 71.6689 34.6552 72.1368 34.1864C72.6048 33.7176 72.8673 33.0821 72.8668 32.4197ZM66.2133 32.4197V25.7528C66.2139 25.0904 65.9513 24.455 65.4833 23.9861C65.0154 23.5173 64.3804 23.2536 63.718 23.2529C62.34 23.2529 61.2231 24.3724 61.2231 25.7528V32.4193C61.2231 33.8006 62.34 34.92 63.718 34.92C64.3804 34.9193 65.0154 34.6556 65.4833 34.1868C65.9513 33.718 66.2139 33.0825 66.2133 32.4201" fill="#E6E6E6"/>
<path d="M63.718 48.2541C64.3804 48.2534 65.0154 47.9897 65.4833 47.5208C65.9513 47.052 66.2139 46.4165 66.2133 45.7542C66.2139 45.0918 65.9513 44.4563 65.4833 43.9875C65.0154 43.5187 64.3804 43.2549 63.718 43.2542H61.2231V45.7542C61.2231 47.1346 62.34 48.2541 63.718 48.2541ZM63.718 41.5876H70.3719C71.7494 41.5876 72.8668 40.4682 72.8668 39.0873C72.8673 38.4249 72.6048 37.7894 72.1368 37.3206C71.6689 36.8518 71.0339 36.5881 70.3715 36.5874H63.718C62.34 36.5874 61.2231 37.7068 61.2231 39.0873C61.2228 39.4153 61.287 39.7401 61.4122 40.0432C61.5374 40.3463 61.7211 40.6218 61.9528 40.854C62.1845 41.0861 62.4596 41.2704 62.7625 41.3962C63.0653 41.522 63.39 41.5869 63.718 41.5872" fill="#E6E6E6"/>
<path d="M47.9168 39.0873C47.9165 39.4153 47.9808 39.7401 48.106 40.0432C48.2312 40.3463 48.4148 40.6218 48.6465 40.854C48.8782 41.0861 49.1533 41.2704 49.4562 41.3962C49.7591 41.522 50.0837 41.5869 50.4117 41.5872C51.0741 41.5866 51.7091 41.3228 52.1771 40.854C52.645 40.3852 52.9076 39.7497 52.907 39.0873V36.5874H50.4117C49.0337 36.5874 47.9168 37.7068 47.9168 39.0873ZM54.5703 39.0873V45.7537C54.5703 47.1346 55.6872 48.2541 57.0652 48.2541C57.7276 48.2534 58.3626 47.9897 58.8305 47.5208C59.2985 47.052 59.5611 46.4165 59.5605 45.7542V39.0873C59.5608 38.7593 59.4965 38.4345 59.3713 38.1313C59.2461 37.8282 59.0624 37.5526 58.8307 37.3205C58.5989 37.0884 58.3238 36.9041 58.0208 36.7783C57.7179 36.6526 57.3932 36.5877 57.0652 36.5874C55.6872 36.5874 54.5703 37.7068 54.5703 39.0873Z" fill="#E6E6E6"/>
</g>
<defs>
<clipPath id="clip0_6002_5125">
<rect width="100.833" height="40" fill="white" transform="translate(47.9166 16)"/>
</clipPath>
</defs>
</svg>
