<svg width="198" height="72" viewBox="0 0 198 72" fill="none" xmlns="http://www.w3.org/2000/svg">
<g clip-path="url(#clip0_6002_5119)">
<path d="M58.2289 18.5654C48.564 18.5654 40.7286 26.4006 40.7286 36.0655C40.7286 45.7309 48.564 53.5654 58.2289 53.5654C67.8949 53.5654 75.7295 45.7309 75.7295 36.0655C75.7295 26.4012 67.8949 18.5663 58.2287 18.5663L58.2289 18.5654ZM66.2545 43.8056C65.941 44.3197 65.2681 44.4827 64.754 44.1671C60.6451 41.6573 55.4725 41.0889 49.3809 42.4807C48.7939 42.6144 48.2087 42.2466 48.075 41.6594C47.9406 41.0722 48.3069 40.4871 48.8954 40.3533C55.5618 38.8303 61.28 39.4861 65.8929 42.3052C66.407 42.6207 66.57 43.2915 66.2545 43.8056ZM68.3965 39.0405C68.0015 39.6825 67.1614 39.8852 66.5199 39.4902C61.8158 36.5988 54.6452 35.7615 49.0812 37.4504C48.3596 37.6684 47.5975 37.2617 47.3785 36.5414C47.1611 35.8198 47.568 35.0591 48.2883 34.8397C54.6439 32.9112 62.5451 33.8454 67.9472 37.165C68.5887 37.5599 68.7914 38.4 68.3965 39.0407V39.0405ZM68.5804 34.0786C62.9401 30.7285 53.6344 30.4205 48.2493 32.0549C47.3845 32.3171 46.47 31.829 46.208 30.9642C45.9459 30.099 46.4337 29.1852 47.299 28.9223C53.4808 27.0457 63.7572 27.4083 70.2509 31.2633C71.0304 31.7249 71.2854 32.7294 70.8235 33.5062C70.3638 34.284 69.3565 34.5404 68.5812 34.0786H68.5804ZM88.3412 34.7206C85.3194 34 84.7823 33.4943 84.7823 32.4316C84.7823 31.4277 85.7269 30.7521 87.1333 30.7521C88.4959 30.7521 89.8458 31.2651 91.2627 32.3213C91.3045 32.3533 91.3588 32.366 91.4111 32.3577C91.4654 32.3497 91.5114 32.3207 91.5427 32.277L93.0181 30.1973C93.0787 30.1116 93.062 29.9935 92.9805 29.9281C91.294 28.5754 89.3965 27.9178 87.1772 27.9178C83.9151 27.9178 81.6352 29.8757 81.6352 32.677C81.6352 35.681 83.6016 36.7447 86.9996 37.5658C89.8897 38.2318 90.3787 38.7898 90.3787 39.787C90.3787 40.8925 89.3924 41.58 87.8041 41.58C86.0404 41.58 84.6005 40.9844 82.9914 39.5926C82.9517 39.5571 82.8974 39.5425 82.8472 39.5446C82.7929 39.5488 82.7448 39.5738 82.7114 39.6135L81.0563 41.5821C80.9873 41.6657 80.9957 41.7869 81.0751 41.8579C82.9475 43.5298 85.2504 44.4116 87.7373 44.4116C91.2523 44.4116 93.5238 42.4911 93.5238 39.5174C93.5301 37.0082 92.0276 35.6185 88.3475 34.7233L88.3412 34.7206ZM101.477 31.7406C99.954 31.7406 98.7044 32.3407 97.672 33.5706V32.1863C97.672 32.077 97.5842 31.988 97.4756 31.988H94.7693C94.6607 31.988 94.5729 32.077 94.5729 32.1863V47.5672C94.5729 47.6758 94.6607 47.7657 94.7693 47.7657H97.4756C97.5842 47.7657 97.672 47.6758 97.672 47.5672V42.7127C98.7044 43.8683 99.954 44.4346 101.477 44.4346C104.309 44.4346 107.176 42.255 107.176 38.0882C107.18 33.9206 104.313 31.7403 101.48 31.7403L101.477 31.7406ZM104.029 38.0882C104.029 40.2091 102.723 41.6908 100.851 41.6908C99.0011 41.6908 97.6051 40.1422 97.6051 38.0882C97.6051 36.034 99.0011 34.4859 100.851 34.4859C102.692 34.4857 104.029 36.0003 104.029 38.088V38.0882ZM114.522 31.7406C110.875 31.7406 108.018 34.5484 108.018 38.1336C108.018 41.6803 110.856 44.4576 114.478 44.4576C118.137 44.4576 121.002 41.6594 121.002 38.0882C121.002 34.5291 118.156 31.741 114.522 31.741V31.7406ZM114.522 41.7117C112.582 41.7117 111.12 40.1527 111.12 38.0872C111.12 36.0122 112.532 34.5066 114.478 34.5066C116.43 34.5066 117.901 36.0649 117.901 38.1325C117.901 40.207 116.48 41.7117 114.522 41.7117ZM128.789 31.988H125.811V28.944C125.811 28.8349 125.723 28.7459 125.614 28.7459H122.908C122.799 28.7459 122.71 28.8349 122.71 28.944V31.988H121.41C121.301 31.988 121.213 32.077 121.213 32.1863V34.5116C121.213 34.6207 121.301 34.7099 121.41 34.7099H122.71V40.7274C122.71 43.1578 123.919 44.3907 126.308 44.3907C127.278 44.3907 128.082 44.1901 128.841 43.7596C128.904 43.7262 128.941 43.6593 128.941 43.5883V41.3731C128.941 41.3062 128.906 41.2415 128.847 41.2059C128.789 41.1683 128.715 41.1662 128.655 41.1976C128.135 41.4588 127.631 41.58 127.067 41.58C126.199 41.58 125.811 41.185 125.811 40.3032V34.7109H128.789C128.897 34.7109 128.985 34.6219 128.985 34.5126V32.1876C128.989 32.0783 128.901 31.9892 128.791 31.9892L128.789 31.988ZM139.162 31.9999V31.626C139.162 30.5262 139.584 30.0357 140.529 30.0357C141.093 30.0357 141.547 30.1477 142.054 30.317C142.117 30.3367 142.182 30.3268 142.232 30.2894C142.284 30.252 142.314 30.192 142.314 30.1285V27.8486C142.314 27.7614 142.259 27.6843 142.174 27.6586C141.639 27.4992 140.953 27.3355 139.925 27.3355C137.428 27.3355 136.105 28.7428 136.105 31.4037V31.9763H134.805C134.696 31.9763 134.607 32.0653 134.607 32.1744V34.5116C134.607 34.6207 134.696 34.7099 134.805 34.7099H136.105V43.9895C136.105 44.1003 136.195 44.188 136.303 44.188H139.008C139.118 44.188 139.206 44.1003 139.206 43.9895V34.7105H141.733L145.603 43.9895C145.164 44.9633 144.731 45.1577 144.142 45.1577C143.666 45.1577 143.162 45.0156 142.65 44.7335C142.602 44.7084 142.543 44.7042 142.493 44.7188C142.441 44.7376 142.397 44.7753 142.376 44.8254L141.459 46.8379C141.415 46.934 141.453 47.0447 141.545 47.0949C142.502 47.6132 143.365 47.8347 144.433 47.8347C146.43 47.8347 147.536 46.9026 148.508 44.3991L153.201 32.2707C153.226 32.2097 153.218 32.1407 153.18 32.0866C153.145 32.0329 153.084 32.0005 153.019 32.0005H150.202C150.117 32.0005 150.042 32.0542 150.014 32.1334L147.128 40.3742L143.969 32.128C143.939 32.0513 143.866 32.0005 143.785 32.0005H139.162V31.9999ZM133.148 31.988H130.442C130.333 31.988 130.243 32.077 130.243 32.1863V43.9895C130.243 44.1003 130.333 44.188 130.442 44.188H133.148C133.257 44.188 133.346 44.1003 133.346 43.9895V32.1871C133.346 32.0778 133.259 31.9888 133.148 31.9888V31.988ZM131.81 26.6133C130.738 26.6133 129.869 27.481 129.869 28.5528C129.869 29.6253 130.738 30.494 131.81 30.494C132.882 30.494 133.75 29.6253 133.75 28.5528C133.75 27.4812 132.88 26.6133 131.81 26.6133ZM155.513 35.7832C154.443 35.7832 153.609 34.9233 153.609 33.879C153.609 32.8348 154.453 31.965 155.523 31.965C156.593 31.965 157.427 32.8247 157.427 33.8681C157.427 34.9124 156.583 35.7832 155.513 35.7832ZM155.523 32.1543C154.547 32.1543 153.809 32.9296 153.809 33.879C153.809 34.828 154.543 35.5928 155.513 35.5928C156.488 35.5928 157.226 34.8182 157.226 33.8681C157.226 32.9192 156.493 32.1543 155.523 32.1543ZM155.945 34.064L156.484 34.8179H156.029L155.544 34.1262H155.128V34.8179H154.748V32.8193H155.638C156.104 32.8193 156.409 33.0569 156.409 33.4569C156.411 33.7846 156.221 33.9848 155.947 34.064H155.945ZM155.623 33.1622H155.128V33.7944H155.623C155.87 33.7944 156.018 33.6734 156.018 33.478C156.018 33.2724 155.87 33.1622 155.623 33.1622Z" fill="#E6E6E6"/>
</g>
<defs>
<clipPath id="clip0_6002_5119">
<rect width="116.667" height="40" fill="white" transform="translate(40.6667 16)"/>
</clipPath>
</defs>
</svg>
