<svg width="52" height="52" viewBox="0 0 52 52" fill="none" xmlns="http://www.w3.org/2000/svg">
<rect x="0.5" y="0.5" width="51" height="51" rx="5.5" fill="url(#paint0_linear_6002_5487)"/>
<rect x="0.5" y="0.5" width="51" height="51" rx="5.5" stroke="url(#paint1_linear_6002_5487)"/>
<g clip-path="url(#clip0_6002_5487)">
<path d="M22.2918 34.125C29.8371 34.125 33.9652 27.8723 33.9652 22.4516C33.9652 22.2758 33.9613 22.0961 33.9535 21.9204C34.7566 21.3396 35.4496 20.6203 36 19.7961C35.2521 20.1289 34.458 20.3462 33.6449 20.4407C34.5011 19.9275 35.1421 19.1213 35.4492 18.1715C34.6438 18.6489 33.763 18.9856 32.8445 19.1672C32.2257 18.5097 31.4075 18.0743 30.5164 17.9284C29.6253 17.7825 28.711 17.9343 27.9148 18.3601C27.1186 18.786 26.4848 19.4623 26.1115 20.2845C25.7382 21.1067 25.6462 22.0289 25.8496 22.9086C24.2187 22.8268 22.6233 22.4031 21.1667 21.6651C19.71 20.9271 18.4247 19.8913 17.3941 18.6247C16.8703 19.5278 16.71 20.5964 16.9459 21.6135C17.1817 22.6305 17.7959 23.5196 18.6637 24.1C18.0122 24.0794 17.375 23.904 16.8047 23.5883V23.6391C16.8041 24.5869 17.1317 25.5055 17.7319 26.239C18.3321 26.9725 19.1678 27.4755 20.0969 27.6625C19.4934 27.8277 18.86 27.8517 18.2457 27.7329C18.5079 28.5479 19.018 29.2608 19.7048 29.772C20.3916 30.2832 21.2209 30.5672 22.077 30.5844C20.6237 31.726 18.8285 32.3452 16.9805 32.3422C16.6527 32.3417 16.3253 32.3216 16 32.2821C17.8774 33.4865 20.0613 34.1262 22.2918 34.125Z" fill="#9EFF00"/>
</g>
<defs>
<linearGradient id="paint0_linear_6002_5487" x1="26" y1="0" x2="26" y2="52" gradientUnits="userSpaceOnUse">
<stop stop-color="#242424"/>
<stop offset="1" stop-color="#242424" stop-opacity="0"/>
</linearGradient>
<linearGradient id="paint1_linear_6002_5487" x1="26" y1="0" x2="26" y2="52" gradientUnits="userSpaceOnUse">
<stop stop-color="#2E2E2E"/>
<stop offset="1" stop-color="#2E2E2E" stop-opacity="0"/>
</linearGradient>
<clipPath id="clip0_6002_5487">
<rect width="20" height="20" fill="white" transform="translate(16 16)"/>
</clipPath>
</defs>
</svg>
