<svg width="197" height="72" viewBox="0 0 197 72" fill="none" xmlns="http://www.w3.org/2000/svg">
<g clip-path="url(#clip0_6002_5116)">
<path d="M58.3343 45.4957L66.5463 32.7175H59.3071C59.2458 32.3494 59.2195 31.9463 59.2195 31.4993C59.2195 31.0698 59.2458 30.6755 59.3071 30.3161H71.0248L71.1738 30.7105L62.9005 43.515H70.6567C70.7181 43.9181 70.7444 44.3388 70.7444 44.7595C70.7444 45.1626 70.7181 45.5483 70.6567 45.9164H58.4833L58.3343 45.4957Z" fill="#E6E6E6"/>
<path d="M82.0327 35.6361C82.0327 34.4355 81.726 33.6116 81.1212 33.1384C80.5165 32.6739 79.6313 32.4372 78.4744 32.4372C77.7645 32.4372 77.0985 32.4898 76.485 32.6037C75.8627 32.7177 75.2668 32.8579 74.6708 33.042C74.2852 32.3759 74.0924 31.5696 74.0924 30.6406C74.7847 30.4215 75.5385 30.2462 76.371 30.1235C77.2036 30.0008 78.0012 29.9394 78.7724 29.9394C80.797 29.9394 82.3394 30.4039 83.3999 31.3242C84.4516 32.2444 84.9862 33.7256 84.9862 35.7501V45.5134C84.2763 45.6711 83.4174 45.8464 82.4008 46.0129C81.3842 46.1882 80.35 46.2671 79.2983 46.2671C78.3079 46.2671 77.4052 46.1795 76.6077 45.9954C75.8101 45.8114 75.1265 45.5221 74.5656 45.1102C74.0047 44.7071 73.5753 44.19 73.2685 43.559C72.9618 42.9279 72.8128 42.1655 72.8128 41.2803C72.8128 40.4126 72.9881 39.6414 73.3474 38.9841C73.698 38.3267 74.18 37.7746 74.7935 37.3452C75.3982 36.907 76.0994 36.5827 76.8969 36.3723C77.6857 36.162 78.5183 36.0481 79.3947 36.0481C80.0432 36.0481 80.5778 36.0656 80.9898 36.0919C81.4017 36.1182 81.7522 36.162 82.0415 36.1971V35.6361H82.0327ZM82.0327 38.5897C81.726 38.5459 81.3403 38.5108 80.8758 38.467C80.4113 38.4232 80.0169 38.4056 79.6927 38.4056C78.4306 38.4056 77.4753 38.6423 76.818 39.1068C76.1607 39.5713 75.8277 40.2812 75.8277 41.2365C75.8277 41.8412 75.9416 42.3232 76.1607 42.665C76.3798 43.0068 76.6603 43.2697 76.9933 43.4538C77.3263 43.6378 77.6944 43.7518 78.1064 43.7868C78.5095 43.8307 78.8951 43.8482 79.2632 43.8482C79.7277 43.8482 80.2098 43.8219 80.7093 43.7693C81.2089 43.7167 81.6471 43.6466 82.0327 43.5414V38.5897Z" fill="#E6E6E6"/>
<path d="M88.2727 30.3168C88.4743 30.273 88.6846 30.2467 88.895 30.2291C89.1053 30.2116 89.3244 30.2029 89.5523 30.2029C89.7539 30.2029 89.9642 30.2116 90.1921 30.2291C90.4112 30.2467 90.6303 30.2817 90.8319 30.3168C90.8494 30.3606 90.8757 30.4833 90.9107 30.6936C90.937 30.904 90.9721 31.1319 90.9984 31.3772C91.0247 31.6226 91.0597 31.8505 91.086 32.0784C91.1123 32.3063 91.1298 32.4465 91.1298 32.5078C91.3314 32.1836 91.5768 31.868 91.8573 31.5613C92.1377 31.2546 92.4795 30.9829 92.8739 30.7375C93.2683 30.4921 93.7153 30.2993 94.2148 30.159C94.7144 30.0188 95.2665 29.9487 95.8713 29.9487C96.7827 29.9487 97.6329 30.0977 98.4129 30.4044C99.1929 30.7112 99.859 31.1757 100.42 31.8155C100.981 32.4552 101.41 33.2703 101.726 34.2519C102.041 35.2335 102.199 36.3991 102.199 37.74C102.199 40.4219 101.472 42.5165 100.025 44.024C98.5706 45.5314 96.5198 46.2939 93.8643 46.2939C93.4173 46.2939 92.9616 46.2676 92.4971 46.2062C92.0326 46.1449 91.6206 46.066 91.2788 45.9608V53.1124C91.0334 53.1562 90.7793 53.1825 90.4988 53.2C90.2271 53.2176 89.973 53.2263 89.7539 53.2263C89.5348 53.2263 89.2806 53.2176 89.0089 53.2C88.7372 53.1825 88.4831 53.1475 88.264 53.1124V30.3168H88.2727ZM91.2876 43.3666C91.6732 43.5069 92.0676 43.612 92.4708 43.6734C92.8739 43.7347 93.3998 43.761 94.0571 43.761C94.7845 43.761 95.4593 43.6471 96.0641 43.4105C96.6688 43.1738 97.1946 42.8145 97.6329 42.3325C98.0711 41.8417 98.4129 41.2282 98.667 40.492C98.9212 39.7558 99.0439 38.8706 99.0439 37.8627C99.0439 36.2414 98.7459 34.953 98.1499 33.9977C97.554 33.0424 96.5724 32.5692 95.2139 32.5692C94.7056 32.5692 94.2236 32.6568 93.7503 32.8409C93.2858 33.0249 92.8652 33.2966 92.5058 33.6647C92.1377 34.0328 91.8485 34.4885 91.6206 35.0494C91.3928 35.6103 91.2876 36.2677 91.2876 37.0389V43.3666Z" fill="#E6E6E6"/>
<path d="M105.95 32.6825H103.969C103.926 32.5159 103.899 32.3319 103.882 32.1215C103.864 31.9112 103.855 31.7009 103.855 31.4993C103.855 31.2977 103.864 31.0874 103.882 30.877C103.899 30.6667 103.934 30.4739 103.969 30.3161H108.904V45.9251C108.684 45.9689 108.43 45.9952 108.159 46.0128C107.887 46.0303 107.633 46.0391 107.414 46.0391C107.212 46.0391 106.975 46.0303 106.695 46.0128C106.423 45.9952 106.169 45.9602 105.95 45.9251V32.6825Z" fill="#E6E6E6"/>
<path d="M115.38 38.8616C115.424 40.5618 115.862 41.8151 116.704 42.6039C117.545 43.3927 118.79 43.7871 120.428 43.7871C121.866 43.7871 123.242 43.5329 124.539 43.0246C124.705 43.3313 124.837 43.6994 124.933 44.1376C125.038 44.5758 125.091 45.0053 125.117 45.4347C124.451 45.7152 123.715 45.9343 122.909 46.0745C122.111 46.2147 121.217 46.2848 120.244 46.2848C118.825 46.2848 117.606 46.0833 116.59 45.6889C115.573 45.2945 114.74 44.7336 114.083 44.0149C113.426 43.2963 112.944 42.4461 112.637 41.4558C112.33 40.4742 112.181 39.3962 112.181 38.213C112.181 37.0562 112.33 35.9782 112.62 34.9703C112.909 33.9624 113.365 33.0948 113.969 32.3498C114.574 31.6136 115.345 31.0176 116.265 30.5882C117.186 30.15 118.281 29.9309 119.534 29.9309C120.612 29.9309 121.55 30.1149 122.365 30.483C123.18 30.8511 123.855 31.3507 124.407 31.9905C124.951 32.6303 125.371 33.3927 125.652 34.2692C125.932 35.1543 126.081 36.1096 126.081 37.1438C126.081 37.4243 126.073 37.731 126.046 38.0378C126.029 38.3533 126.002 38.625 125.985 38.8441H115.38V38.8616ZM123.11 36.6092C123.11 36.0395 123.031 35.4961 122.882 34.9791C122.733 34.462 122.506 34.015 122.216 33.6294C121.918 33.2437 121.55 32.937 121.095 32.7004C120.639 32.4637 120.095 32.3498 119.464 32.3498C118.229 32.3498 117.282 32.7267 116.616 33.4716C115.959 34.2253 115.556 35.2683 115.415 36.6092H123.11Z" fill="#E6E6E6"/>
<path d="M129.412 30.3161C129.631 30.2723 129.85 30.246 130.052 30.2285C130.253 30.211 130.463 30.2022 130.691 30.2022C130.91 30.2022 131.138 30.211 131.357 30.2285C131.577 30.246 131.787 30.2811 131.962 30.3161C132.023 30.6229 132.085 31.0173 132.146 31.5168C132.208 32.0164 132.234 32.4371 132.234 32.7789C132.663 32.0865 133.224 31.4905 133.925 30.9822C134.626 30.4739 135.52 30.2197 136.616 30.2197C136.782 30.2197 136.949 30.2285 137.115 30.2372C137.291 30.246 137.431 30.2635 137.554 30.2811C137.598 30.4651 137.624 30.6579 137.641 30.8595C137.659 31.0611 137.668 31.2714 137.668 31.4993C137.668 31.7447 137.65 31.9988 137.624 32.2618C137.598 32.5247 137.554 32.7789 137.519 33.0243C137.352 32.9804 137.186 32.9629 137.019 32.9629C136.844 32.9629 136.712 32.9629 136.607 32.9629C136.064 32.9629 135.538 33.0418 135.038 33.1908C134.539 33.3398 134.092 33.6115 133.697 33.9971C133.303 34.3827 132.988 34.9086 132.751 35.5834C132.514 36.2495 132.4 37.1171 132.4 38.1688V45.9251C132.181 45.9689 131.927 45.9952 131.655 46.0128C131.384 46.0303 131.13 46.0391 130.91 46.0391C130.691 46.0391 130.437 46.0303 130.165 46.0128C129.894 45.9952 129.631 45.9602 129.385 45.9251V30.3161H129.412Z" fill="#E6E6E6"/>
<path d="M111.769 21.1316H108.825L110.91 19.0457C110.744 18.8179 110.56 18.5988 110.367 18.3972C110.165 18.1956 109.955 18.0116 109.719 17.8538L107.633 19.9397V16.9949C107.361 16.9511 107.08 16.9248 106.791 16.9248H106.783C106.493 16.9248 106.213 16.9511 105.941 16.9949V19.9397L103.855 17.8538C103.627 18.0203 103.408 18.2044 103.207 18.3972C103.005 18.5988 102.83 18.8091 102.663 19.0457L104.758 21.1316H101.813C101.813 21.1316 101.743 21.6838 101.743 21.973C101.743 22.2622 101.769 22.5426 101.813 22.8143H104.758L102.672 24.9002C102.996 25.3559 103.4 25.7591 103.864 26.0921L105.95 24.0063V26.951C106.222 26.9948 106.502 27.0211 106.791 27.0211H106.8C107.089 27.0211 107.37 26.9948 107.641 26.951V24.0063L109.727 26.0921C109.955 25.9256 110.174 25.7416 110.376 25.5488C110.577 25.3472 110.761 25.1368 110.919 24.9002L108.833 22.8143H111.778C111.822 22.5426 111.848 22.2622 111.848 21.973V21.9642C111.839 21.6838 111.822 21.4033 111.769 21.1316ZM108.053 21.9817C108.053 22.3586 107.983 22.7179 107.861 23.051C107.527 23.1737 107.168 23.2438 106.791 23.2438C106.414 23.2438 106.055 23.1737 105.722 23.051C105.599 22.7179 105.529 22.3586 105.529 21.9817V21.973C105.529 21.5961 105.599 21.2368 105.722 20.9037C106.055 20.781 106.414 20.7109 106.791 20.7109C107.168 20.7109 107.527 20.781 107.861 20.9037C107.983 21.2368 108.053 21.5961 108.053 21.9817Z" fill="#E6E6E6"/>
</g>
<defs>
<clipPath id="clip0_6002_5116">
<rect width="80" height="40" fill="white" transform="translate(58.3333 16)"/>
</clipPath>
</defs>
</svg>
