<svg width="197" height="72" viewBox="0 0 197 72" fill="none" xmlns="http://www.w3.org/2000/svg">
<g clip-path="url(#clip0_6002_5122)">
<path fill-rule="evenodd" clip-rule="evenodd" d="M124.256 33.1666C124.568 33.7047 124.67 34.3168 124.703 35.005L124.748 35.9222V42.3362L124.793 43.2544C124.883 44.7539 125.989 45.8627 127.5 45.957L128.414 46.0023V35.9222L128.459 35.005C128.497 34.3245 128.598 33.7008 128.914 33.1589C129.237 32.6031 129.7 32.142 130.257 31.8218C130.815 31.5017 131.446 31.3338 132.089 31.3349C132.732 31.3361 133.363 31.5063 133.919 31.8285C134.475 32.1507 134.936 32.6135 135.257 33.1705C135.569 33.7085 135.666 34.3322 135.704 35.005L135.749 35.9193V42.3362L135.794 43.2544C135.888 44.7616 136.986 45.8704 138.502 45.957L139.415 46.0023V35.005C139.415 33.0604 138.643 31.1953 137.268 29.82C135.893 28.4447 134.028 27.6716 132.084 27.6709C131.043 27.6698 130.014 27.8908 129.065 28.3192C128.117 28.7476 127.271 29.3735 126.583 30.155C125.896 29.3738 125.049 28.748 124.101 28.3195C123.152 27.891 122.123 27.6696 121.083 27.6699C119.56 27.6699 118.147 28.1319 116.977 28.9298C116.262 28.1329 114.665 27.6699 113.748 27.6699V46.0023L114.665 45.957C116.199 45.856 117.308 44.777 117.367 43.2544L117.417 42.3362V35.9222L117.462 35.005C117.5 34.313 117.596 33.7047 117.909 33.1628C118.232 32.6073 118.695 32.1463 119.252 31.8258C119.809 31.5052 120.44 31.3363 121.083 31.336C121.726 31.3361 122.357 31.5053 122.914 31.8267C123.471 32.148 123.934 32.6101 124.256 33.1666ZM61.4993 45.958L62.4165 46.0023H76.1656L76.1203 45.0879C75.9962 43.5807 74.9288 42.4796 73.4167 42.3814L72.4995 42.3362H64.251L75.2483 31.335L75.2031 30.4216C75.1319 28.899 74.0192 27.7989 72.4995 27.7151L71.5822 27.6738L57.8332 27.6699L57.8784 28.5872C57.9987 30.08 59.0815 31.2041 60.5811 31.2908L61.4993 31.336H69.7477L58.7504 42.3372L58.7957 43.2544C58.8861 44.7655 59.9766 45.8598 61.4993 45.957V45.958ZM110.149 30.3533C111 31.2044 111.675 32.215 112.136 33.3271C112.597 34.4393 112.834 35.6313 112.834 36.8351C112.834 38.039 112.597 39.231 112.136 40.3432C111.675 41.4553 111 42.4658 110.149 43.317C108.429 45.0355 106.097 46.0009 103.666 46.0009C101.234 46.0009 98.9022 45.0355 97.1823 43.317C93.6028 39.7375 93.6028 33.9328 97.1823 30.3533C98.0328 29.5025 99.0426 28.8275 100.154 28.3669C101.265 27.9063 102.457 27.6691 103.66 27.6689C104.865 27.6681 106.058 27.9048 107.172 28.3656C108.285 28.8264 109.297 29.5022 110.149 30.3543V30.3533ZM107.555 32.9491C108.586 33.9809 109.165 35.3799 109.165 36.8385C109.165 38.2971 108.586 39.6961 107.555 40.7279C106.523 41.7589 105.124 42.3381 103.666 42.3381C102.207 42.3381 100.808 41.7589 99.7762 40.7279C98.7451 39.6961 98.166 38.2971 98.166 36.8385C98.166 35.3799 98.7451 33.9809 99.7762 32.9491C100.808 31.9181 102.207 31.3389 103.666 31.3389C105.124 31.3389 106.523 31.9181 107.555 32.9491ZM84.4217 27.6689C85.6249 27.6693 86.8161 27.9066 87.9276 28.3673C89.039 28.8281 90.0487 29.5032 90.8992 30.3543C94.4796 33.9328 94.4796 39.7385 90.8992 43.317C89.1793 45.0355 86.8473 46.0009 84.4159 46.0009C81.9845 46.0009 79.6526 45.0355 77.9327 43.317C74.3532 39.7375 74.3532 33.9328 77.9327 30.3533C78.7832 29.5025 79.793 28.8275 80.9044 28.3669C82.0158 27.9063 83.2071 27.6691 84.4102 27.6689H84.4217ZM88.3053 32.9472C89.3366 33.979 89.916 35.3782 89.916 36.8371C89.916 38.2959 89.3366 39.6951 88.3053 40.7269C87.2735 41.7579 85.8746 42.3371 84.4159 42.3371C82.9573 42.3371 81.5584 41.7579 80.5266 40.7269C79.4955 39.6951 78.9164 38.2962 78.9164 36.8375C78.9164 35.3789 79.4955 33.98 80.5266 32.9482C81.5584 31.9171 82.9573 31.338 84.4159 31.338C85.8746 31.338 87.2735 31.9171 88.3053 32.9482V32.9472Z" fill="#E6E6E6"/>
</g>
<defs>
<clipPath id="clip0_6002_5122">
<rect width="81.6666" height="40" fill="white" transform="translate(57.8334 16)"/>
</clipPath>
</defs>
</svg>
